<svg xmlns="http://www.w3.org/2000/svg" xmlns:xlink="http://www.w3.org/1999/xlink" viewBox="0 0 370.39 99.18"><defs><style>.cls-1{fill:#777679;}.cls-2{fill:#56565a;}.cls-3{fill:#8a2b43;}.cls-4{fill:#d0d1d3;}.cls-5{fill:#bc8f2d;}.cls-6{fill:#9ec54c;}.cls-7{fill:url(#linear-gradient);}.cls-8{fill:url(#linear-gradient-2);}.cls-9{fill:url(#linear-gradient-3);}.cls-10{fill:url(#linear-gradient-4);}.cls-11{fill:url(#linear-gradient-5);}.cls-12{fill:url(#linear-gradient-6);}.cls-13{fill:#bf2338;}.cls-14{fill:url(#linear-gradient-7);}.cls-15{fill:#a6a8aa;}.cls-16{fill:url(#linear-gradient-8);}.cls-17{fill:#bbbcbe;}.cls-18{fill:#fff;}</style><linearGradient id="linear-gradient" x1="0.74" y1="34.08" x2="16.91" y2="34.08" gradientUnits="userSpaceOnUse"><stop offset="0" stop-color="#a6a8aa"/><stop offset="1" stop-color="#d0d1d3"/></linearGradient><linearGradient id="linear-gradient-2" x1="50.45" y1="34.08" x2="67.43" y2="34.08" gradientUnits="userSpaceOnUse"><stop offset="0" stop-color="#a6a8aa"/><stop offset="1" stop-color="#bbbcbe"/></linearGradient><linearGradient id="linear-gradient-3" x1="0.74" y1="59.28" x2="67.43" y2="59.28" gradientUnits="userSpaceOnUse"><stop offset="0" stop-color="#808183"/><stop offset="1" stop-color="#929496"/></linearGradient><linearGradient id="linear-gradient-4" x1="9.11" y1="34.07" x2="32.48" y2="34.07" gradientUnits="userSpaceOnUse"><stop offset="0" stop-color="#6f1b1d"/><stop offset="1" stop-color="#bf2338"/></linearGradient><linearGradient id="linear-gradient-5" x1="41.95" y1="52.61" x2="41.95" y2="-5.85" xlink:href="#linear-gradient-4"/><linearGradient id="linear-gradient-6" x1="16.23" y1="42.42" x2="79.29" y2="42.42" xlink:href="#linear-gradient-4"/><linearGradient id="linear-gradient-7" x1="34.09" y1="34.16" x2="34.09" y2="-7.92" gradientUnits="userSpaceOnUse"><stop offset="0" stop-color="#e6e6e7"/><stop offset="1" stop-color="#f1f1f2"/></linearGradient><linearGradient id="linear-gradient-8" x1="19.56" y1="-387.85" x2="49.88" y2="-387.85" gradientTransform="translate(-354.19 -1.86) rotate(90)" gradientUnits="userSpaceOnUse"><stop offset="0" stop-color="#bbbcbe"/><stop offset="1" stop-color="#e6e6e7"/></linearGradient></defs><title>Ресурс 1</title><g id="Слой_2" data-name="Слой 2"><g id="Layer_1" data-name="Layer 1"><path class="cls-1" d="M103.45,84.89v7.87H101V73.7h5.38a8.75,8.75,0,0,1,5.37,1.35,4.83,4.83,0,0,1,1.74,4.06q0,3.8-3.91,5.12l5.35,8.54h-2.87l-4.72-7.87Zm0-2h2.92a5.41,5.41,0,0,0,3.47-.91,3.34,3.34,0,0,0,1.09-2.71,3.07,3.07,0,0,0-1.11-2.63,6.09,6.09,0,0,0-3.59-.83h-2.79Z"/><path class="cls-1" d="M123.89,93a6.84,6.84,0,0,1-5.17-1.95,7.43,7.43,0,0,1-1.87-5.37,8.15,8.15,0,0,1,1.75-5.48,5.89,5.89,0,0,1,4.72-2,5.77,5.77,0,0,1,4.4,1.74,6.59,6.59,0,0,1,1.64,4.72v1.42h-10a5.44,5.44,0,0,0,1.27,3.7A4.47,4.47,0,0,0,124,91a11.66,11.66,0,0,0,2.23-.21,13,13,0,0,0,2.47-.79V92.1a11.87,11.87,0,0,1-2.28.71A13.15,13.15,0,0,1,123.89,93Zm-.6-12.92a3.53,3.53,0,0,0-2.72,1.08,5,5,0,0,0-1.19,3h7.46a4.58,4.58,0,0,0-.95-3.05A3.29,3.29,0,0,0,123.29,80.11Z"/><path class="cls-1" d="M142.61,88.82a3.61,3.61,0,0,1-1.53,3.11,7.28,7.28,0,0,1-4.31,1.1,9.89,9.89,0,0,1-4.6-.9V90a10.78,10.78,0,0,0,4.65,1.15,4.73,4.73,0,0,0,2.64-.57,1.79,1.79,0,0,0,.83-1.54,1.74,1.74,0,0,0-.79-1.43,12.48,12.48,0,0,0-2.82-1.34,15.92,15.92,0,0,1-2.91-1.34,3.68,3.68,0,0,1-1.23-1.24,3.32,3.32,0,0,1-.4-1.68,3.2,3.2,0,0,1,1.47-2.78,7,7,0,0,1,4-1,11.34,11.34,0,0,1,4.67,1L141.49,81a10.72,10.72,0,0,0-4-.91,4.46,4.46,0,0,0-2.27.46,1.43,1.43,0,0,0-.78,1.28,1.59,1.59,0,0,0,.67,1.3,14.68,14.68,0,0,0,3.11,1.42,14.08,14.08,0,0,1,2.7,1.24,4,4,0,0,1,1.29,1.29A3.41,3.41,0,0,1,142.61,88.82Z"/><path class="cls-1" d="M153.09,93A5.38,5.38,0,0,1,148.56,91h-.16l.05.54a17.63,17.63,0,0,1,.11,1.81v5.88h-2.4V78.45h2l.32,2h.11a5.13,5.13,0,0,1,2-1.7,6.06,6.06,0,0,1,2.59-.52,5.4,5.4,0,0,1,4.44,1.94,8.4,8.4,0,0,1,1.58,5.45,8.51,8.51,0,0,1-1.59,5.48A5.41,5.41,0,0,1,153.09,93Zm-.4-12.87a3.8,3.8,0,0,0-3.14,1.2,6.06,6.06,0,0,0-1,3.77v.46a7,7,0,0,0,1,4.21,3.75,3.75,0,0,0,3.2,1.3,3.32,3.32,0,0,0,2.87-1.46,7,7,0,0,0,1-4.07,6.62,6.62,0,0,0-1-4A3.43,3.43,0,0,0,152.69,80.16Z"/><path class="cls-1" d="M169.2,93A6.85,6.85,0,0,1,164,91.08a7.43,7.43,0,0,1-1.87-5.37,8.13,8.13,0,0,1,1.75-5.48,5.88,5.88,0,0,1,4.72-2,5.78,5.78,0,0,1,4.4,1.74,6.61,6.61,0,0,1,1.64,4.72v1.42h-10a5.4,5.4,0,0,0,1.27,3.7A4.47,4.47,0,0,0,169.3,91a11.63,11.63,0,0,0,2.23-.21A13.1,13.1,0,0,0,174,90V92.1a12,12,0,0,1-2.28.71A13.16,13.16,0,0,1,169.2,93Zm-.6-12.92a3.54,3.54,0,0,0-2.72,1.08,5,5,0,0,0-1.19,3h7.45a4.56,4.56,0,0,0-.95-3.05A3.28,3.28,0,0,0,168.59,80.11Z"/><path class="cls-1" d="M184.24,93a6.4,6.4,0,0,1-4.92-1.9,7.73,7.73,0,0,1-1.76-5.45,7.93,7.93,0,0,1,1.78-5.55,6.53,6.53,0,0,1,5.07-1.95,10.44,10.44,0,0,1,2.12.21,7,7,0,0,1,1.73.55l-.73,2a9.52,9.52,0,0,0-3.17-.68,3.87,3.87,0,0,0-3.27,1.36A6.58,6.58,0,0,0,180,85.66a6.46,6.46,0,0,0,1.05,4A3.69,3.69,0,0,0,184.22,91a9.21,9.21,0,0,0,3.8-.84v2.09A8.34,8.34,0,0,1,184.24,93Z"/><path class="cls-1" d="M196.38,91.11a7.79,7.79,0,0,0,1.09-.09,5.28,5.28,0,0,0,1-.21v1.8a5.75,5.75,0,0,1-1,.28A7.63,7.63,0,0,1,196,93q-4.3,0-4.29-4.42V80.28h-2.07V79.15l2.09-.94,1-3h1.43v3.29h4.23v1.83h-4.23v8.26a2.73,2.73,0,0,0,.61,1.91A2.18,2.18,0,0,0,196.38,91.11Z"/><path class="cls-1" d="M220.41,92.77l-2.51-8.06q-.34-1-1-3.8h-.11c-.37,1.7-.7,3-1,3.82l-2.63,8h-2.72l-4-14.31h2.48q1.39,5.28,2.12,8a32.81,32.81,0,0,1,.86,3.89H212l.19-.81a31.23,31.23,0,0,1,.8-3l2.6-8.07h2.62l2.52,8.07.29,1c.1.34.19.68.28,1s.17.66.24,1,.12.6.16.86h.12a40.42,40.42,0,0,1,1-4.25l2.06-7.64h2.45l-4.07,14.31Z"/><path class="cls-1" d="M229.73,74.58a1.44,1.44,0,0,1,.41-1.13,1.49,1.49,0,0,1,1-.35,1.48,1.48,0,0,1,1,.35,1.4,1.4,0,0,1,.42,1.13,1.36,1.36,0,0,1-1.4,1.5,1.44,1.44,0,0,1-1-.37A1.46,1.46,0,0,1,229.73,74.58Zm2.59,18.19h-2.4V78.45h2.4Z"/><path class="cls-1" d="M241.86,91.11A7.76,7.76,0,0,0,243,91a5.31,5.31,0,0,0,1-.21v1.8a5.73,5.73,0,0,1-1,.28,7.63,7.63,0,0,1-1.42.13q-4.3,0-4.29-4.42V80.28h-2.07V79.15l2.09-.94,1-3h1.43v3.29h4.23v1.83h-4.23v8.26a2.73,2.73,0,0,0,.61,1.91A2.18,2.18,0,0,0,241.86,91.11Z"/><path class="cls-1" d="M256.8,92.77V83.61A3.72,3.72,0,0,0,256,81a3.25,3.25,0,0,0-2.49-.85,4.05,4.05,0,0,0-3.26,1.21,6.14,6.14,0,0,0-1,4v7.39h-2.4V72.48h2.4v5.94a13.12,13.12,0,0,1-.13,2h.16a4.42,4.42,0,0,1,1.85-1.63,6.09,6.09,0,0,1,2.71-.59,5.76,5.76,0,0,1,4,1.24,5.22,5.22,0,0,1,1.34,4v9.32Z"/><path class="cls-1" d="M282.2,87.67a4.71,4.71,0,0,1-1.85,3.93A8.13,8.13,0,0,1,275.24,93a12.77,12.77,0,0,1-5.36-.9V89.84a14.26,14.26,0,0,0,2.71.82,13.91,13.91,0,0,0,2.75.3,5.53,5.53,0,0,0,3.3-.82,2.67,2.67,0,0,0,1.11-2.26,2.81,2.81,0,0,0-.4-1.56A3.77,3.77,0,0,0,278,85.17,18.77,18.77,0,0,0,275.15,84a9.32,9.32,0,0,1-3.87-2.27,4.92,4.92,0,0,1-1.16-3.38,4.25,4.25,0,0,1,1.72-3.55,7.22,7.22,0,0,1,4.51-1.32,13.3,13.3,0,0,1,5.38,1.07L281,76.56a12.47,12.47,0,0,0-4.67-1,4.45,4.45,0,0,0-2.71.73,2.39,2.39,0,0,0-1,2,2.94,2.94,0,0,0,.38,1.56A3.5,3.5,0,0,0,274.22,81a16.45,16.45,0,0,0,2.66,1.16,14.67,14.67,0,0,1,3.24,1.52,4.46,4.46,0,0,1,2.08,4Z"/><path class="cls-1" d="M290.7,91.11a7.78,7.78,0,0,0,1.09-.09,5.2,5.2,0,0,0,.95-.21v1.8a5.57,5.57,0,0,1-1,.28,7.67,7.67,0,0,1-1.42.13Q286,93,286,88.61V80.28h-2.07V79.15l2.1-.94,1-3h1.43v3.29h4.23v1.83H288.4v8.26a2.74,2.74,0,0,0,.61,1.91A2.18,2.18,0,0,0,290.7,91.11Z"/><path class="cls-1" d="M304.7,92.77l-.47-2h-.11a6.05,6.05,0,0,1-2.18,1.82,6.86,6.86,0,0,1-2.74.48,4.88,4.88,0,0,1-3.39-1.11,4,4,0,0,1-1.22-3.13q0-4.35,7-4.56l2.48-.09v-.85a3.43,3.43,0,0,0-.72-2.41,3,3,0,0,0-2.31-.78,7,7,0,0,0-2.19.34,18.37,18.37,0,0,0-1.94.76l-.73-1.76a11.16,11.16,0,0,1,2.42-.9,10.8,10.8,0,0,1,2.59-.33,5.81,5.81,0,0,1,4,1.15A4.65,4.65,0,0,1,306.45,83v9.75Zm-4.95-1.63a4.49,4.49,0,0,0,3.17-1.07,3.9,3.9,0,0,0,1.15-3V85.77l-2.16.09a8,8,0,0,0-3.68.78,2.35,2.35,0,0,0-1.15,2.18,2.14,2.14,0,0,0,.7,1.72A3,3,0,0,0,299.75,91.14Z"/><path class="cls-1" d="M317.92,78.21a5.41,5.41,0,0,1,4.47,2A8.44,8.44,0,0,1,324,85.61a8.38,8.38,0,0,1-1.6,5.48A5.44,5.44,0,0,1,317.92,93a6.34,6.34,0,0,1-2.64-.52,4.57,4.57,0,0,1-1.9-1.55h-.19q-.41,1.56-.49,1.81H311V72.48h2.4v4.93c0,1,0,2-.13,2.95h.13A5.14,5.14,0,0,1,317.92,78.21Zm-.4,1.95a3.78,3.78,0,0,0-3.17,1.23,6.84,6.84,0,0,0-1,4.14v.11a6.93,6.93,0,0,0,1,4.19,3.82,3.82,0,0,0,3.21,1.26,3.33,3.33,0,0,0,2.94-1.42,7.23,7.23,0,0,0,1-4.09,7,7,0,0,0-1-4.06A3.44,3.44,0,0,0,317.52,80.16Z"/><path class="cls-1" d="M327.61,74.58a1.43,1.43,0,0,1,.41-1.13,1.59,1.59,0,0,1,2,0,1.4,1.4,0,0,1,.42,1.13,1.42,1.42,0,0,1-.42,1.14,1.41,1.41,0,0,1-2.39-1.14Zm2.59,18.19h-2.4V78.45h2.4Z"/><path class="cls-1" d="M337.24,92.77h-2.4V72.48h2.4Z"/><path class="cls-1" d="M341.7,74.58a1.43,1.43,0,0,1,.4-1.13,1.51,1.51,0,0,1,1-.35,1.5,1.5,0,0,1,1,.35,1.4,1.4,0,0,1,.42,1.13,1.42,1.42,0,0,1-.42,1.14,1.45,1.45,0,0,1-1,.37,1.34,1.34,0,0,1-1.41-1.5Zm2.59,18.19h-2.4V78.45h2.4Z"/><path class="cls-1" d="M353.82,91.11a7.73,7.73,0,0,0,1.09-.09,5.22,5.22,0,0,0,.95-.21v1.8a5.55,5.55,0,0,1-1,.28,7.65,7.65,0,0,1-1.42.13q-4.29,0-4.3-4.42V80.28H347V79.15l2.1-.94,1-3h1.43v3.29h4.23v1.83h-4.23v8.26a2.73,2.73,0,0,0,.61,1.91A2.17,2.17,0,0,0,353.82,91.11Z"/><path class="cls-1" d="M356.49,78.45h2.58l3.16,8.15a25.27,25.27,0,0,1,1.23,3.9h.11c.08-.32.26-.93.55-1.81s.52-1.59.72-2.12l3-8.12h2.59l-6.31,16.3a8.06,8.06,0,0,1-2.19,3.4,4.8,4.8,0,0,1-3.14,1,9.25,9.25,0,0,1-2-.22V97.1a7.09,7.09,0,0,0,1.6.16,3.1,3.1,0,0,0,1.95-.62,4.35,4.35,0,0,0,1.31-1.91l.76-1.9Z"/><path class="cls-2" d="M129.22,57.2,119.07,39.4H110V57.2h-9V9.29h17.93c9.46,0,16.88,3.42,16.88,13.83,0,7.39-3.71,11.16-8.33,14L138.54,57.2ZM110,16.61V31.19h6.58c8.12,0,9.87-3.15,9.87-7.46s-1.82-7.12-9.52-7.12Z"/><path class="cls-2" d="M177.83,57.2h-7.28l-7.21-22.31L156.12,57.2h-7.29L138.61,23h8.47l6,23.89,6.58-23.21H167l6.51,23.21L179.58,23H188Z"/><path class="cls-2" d="M190.71,54.67l1.05-10c2.66,2.53,8.05,5.06,15.41,5.06,5.25,0,8.75-1.3,8.75-5.2,0-4.86-5.46-6.57-11.41-8.56C197.58,33.65,190,31.26,190,22.7c0-6.37,4.48-14.37,17.72-14.37,6.72,0,13.09,2.05,15.62,3.7l-.91,9c-5.25-2.81-9.67-4.31-14.36-4.31-3.78,0-10.06,1-10.06,5.06,0,3.83,5.65,5.34,11,6.91,7.63,2.26,17,5,17,15.54,0,5.47-2.45,14-19,14C199.54,58.16,193.51,56.45,190.71,54.67Z"/><path class="cls-3" d="M239.75,53l-.69,4.2h-5.54V6.46h6.23V27.63c2.91-3.45,7.48-4.26,10.52-4.26,9.48,0,15.3,8.19,15.3,17.25,0,9.67-6.71,17.25-15.37,17.25C247.16,57.88,242.32,56.25,239.75,53Zm-.35-12.38c0,8.32,5.12,11.84,10.11,11.84,6,0,9.69-5.35,9.69-11.84,0-6.76-3.74-11.84-9.69-11.84C244.53,28.78,239.41,32.64,239.41,40.62Z"/><path class="cls-3" d="M299.5,57.88H299c-6,0-7.34-1.76-8.72-4.87a13.54,13.54,0,0,1-10.38,4.87c-6.3,0-10.45-4.06-10.45-9.61,0-9.34,11.63-11.7,20.28-11.84,0-6.29-2.63-7.65-7.41-7.65a15,15,0,0,0-8.93,3l-.9-4.94A19.85,19.85,0,0,1,284,23.37c8.58,0,12,3.92,12,15.9V46c0,4.74.28,7,3.87,7h.62Zm-9.76-17.25c-9.9.34-13.91,2.37-13.91,7.31,0,3.59,2.15,5.07,5.26,5.07a11.07,11.07,0,0,0,8.65-4.47Z"/><path class="cls-3" d="M329.62,57.2V38.93c0-7-2.42-10.15-8.86-10.15-3.88,0-7.55,1.35-9.28,4.33V57.2h-6.23V24h4.85l.69,3.52A16,16,0,0,1,322,23.37c9.9,0,13.84,6,13.84,15.56V57.2Z"/><path class="cls-3" d="M342.78,57.2V6.46H349V39l12.46-15h7.61l-14,15.29L369.44,57.2h-7.61L349,40.35V57.2Z"/><path class="cls-4" d="M68.17,68.17H0V0H68.17ZM1.47,66.7H66.7V1.47H1.47Z"/><rect class="cls-5" x="67.43" y="0.74" height="66.7"/><polygon class="cls-6" points="67.43 67.44 67.43 67.44 67.43 67.43 67.43 67.44"/><polygon class="cls-7" points="16.86 16.59 0.74 0.74 0.74 67.43 16.91 51.12 16.86 16.59"/><polygon class="cls-8" points="50.45 17.7 50.58 50.77 67.43 67.43 67.43 0.74 50.45 17.7"/><polygon class="cls-9" points="16.91 51.12 0.74 67.43 0.74 67.44 67.43 67.44 67.43 67.43 50.52 51.12 16.91 51.12"/><polygon class="cls-10" points="17.24 17.36 17.24 50.77 33.71 34.07 17.24 17.36"/><polygon class="cls-11" points="50.18 50.77 50.18 17.36 50.18 17.36 33.71 34.07 50.18 50.77"/><polygon class="cls-12" points="17.24 50.77 17.24 50.77 50.18 50.77 33.71 34.07 17.24 50.77"/><path class="cls-13" d="M49.85,17.88V50.44H17.57V17.8a2.64,2.64,0,0,1-.67-.72v34H50.52V17A2.78,2.78,0,0,1,49.85,17.88Z"/><polygon class="cls-14" points="0.74 0.74 15.85 15.85 34.08 34.09 52.33 15.85 67.43 0.74 0.74 0.74"/><rect class="cls-15" x="16.86" y="17.03" width="33.59" height="0.67"/><polygon class="cls-16" points="50.13 17.7 17.19 17.7 33.66 33.73 50.13 17.7"/><path class="cls-17" d="M64.67,64.47c-1.78-1.86-4.52-4.56-7.59-7.73-1.55-1.59-4.79-4.55-6.56-6.39v.77h-.76c1.83,1.76,5.15,4.66,6.74,6.21,3.17,3.08,6.11,5.57,8,7.35l3,2.77Z"/><path class="cls-17" d="M16.91,50.37c-1.77,1.83-4.49,4.77-6,6.36C7.79,59.9,5.29,62.61,3.5,64.47l-2.77,3,3-2.77c1.87-1.78,4.57-4.29,7.74-7.37,1.59-1.55,4.38-4.42,6.21-6.19h-.74Z"/><path class="cls-13" d="M50.52,50.35c-1.75-1.82-2.63-2.81-4.57-4.76-3.73-3.77-7.74-8-11.72-12l-.52.52-.52.51c4,4,8.08,8.18,11.85,11.91,2,1.94,2.9,2.87,4.71,4.62h.76Z"/><path class="cls-13" d="M34.22,34.57l-.51-.5-.5-.51c-4,4-8.08,8.56-11.81,12.33-1.94,2-2.73,2.66-4.49,4.48v.75h.74c1.82-1.76,2.67-2.4,4.63-4.34C26,43,30.2,38.55,34.22,34.57Z"/><path class="cls-18" d="M52.33,16.59c1.76-1.83,3.42-3.56,5-5.15"/><path class="cls-18" d="M64.47,3.5c-1.86,1.79-4.57,4.29-7.74,7.37-1.59,1.55-3.32,3.21-5.14,5s-3.73,3.61-5.69,5.55C42.12,25.12,37.75,29.07,33.73,33c-4-4-7.66-7.93-11.44-11.66-2-1.94-3.86-3.79-5.68-5.54s-3.57-3.43-5.16-5C8.28,7.78,5.57,5.28,3.7,3.5L.74.74l2.76,3c1.78,1.86,4.28,4.57,7.36,7.75,1.55,1.59,3.21,3.33,5,5.16s3.6,3.73,5.54,5.68c3.73,3.77,7.33,7.77,11.31,11.79l.5.51.51.5.52-.52.52-.52c4-4,8.31-8,12-11.77,1.94-2,3.8-3.87,5.55-5.69l5-5.15c3.08-3.17,5.59-5.88,7.37-7.74l2.77-3Z"/></g></g></svg>